<?xml version="1.0" standalone="no"?>
<!DOCTYPE svg PUBLIC "-//W3C//DTD SVG 20010904//EN"
 "http://www.w3.org/TR/2001/REC-SVG-20010904/DTD/svg10.dtd">
<svg version="1.0" xmlns="http://www.w3.org/2000/svg"
 width="1999.000000pt" height="1999.000000pt" viewBox="0 0 1999.000000 1999.000000"
 preserveAspectRatio="xMidYMid meet">
<metadata>
Created by potrace 1.14, written by Peter Selinger 2001-2017
</metadata>
<g transform="translate(0.000000,1999.000000) scale(0.100000,-0.100000)"
fill="#000000" stroke="none">
<path d="M11120 15494 c0 -2554 0 -2608 20 -2702 66 -327 216 -599 464 -847
294 -294 637 -501 1401 -850 708 -322 981 -478 1197 -684 167 -158 255 -303
282 -460 20 -116 20 -274 1 -363 -33 -158 -96 -269 -230 -404 -206 -208 -437
-330 -1155 -609 -357 -138 -528 -210 -715 -299 -586 -279 -963 -633 -1140
-1071 -45 -111 -99 -319 -115 -440 -8 -66 -10 -714 -8 -2465 l3 -2375 2773 -3
2772 -2 0 2357 c0 1424 4 2391 10 2441 12 104 74 294 144 437 169 345 434 629
831 891 250 164 505 297 1000 519 516 231 693 320 875 440 286 189 429 386
455 625 8 77 -10 289 -32 380 -55 226 -206 408 -503 603 -132 86 -482 260
-843 417 -654 285 -918 425 -1205 640 -404 301 -636 662 -713 1108 -18 111
-19 182 -19 2718 l0 2604 -2775 0 -2775 0 0 -2606z"/>
<path d="M0 15468 c0 -2560 1 -2615 20 -2706 46 -218 138 -428 268 -612 83
-117 293 -330 427 -431 273 -208 566 -369 1190 -654 681 -311 957 -468 1170
-667 231 -217 317 -417 302 -702 -10 -170 -39 -260 -133 -402 -156 -237 -449
-418 -1069 -662 -531 -208 -621 -244 -740 -297 -320 -141 -542 -269 -755 -433
-118 -91 -292 -270 -373 -382 -126 -178 -227 -411 -279 -650 l-23 -105 0
-2430 0 -2430 2773 -3 2772 -2 0 2403 0 2404 30 105 c101 361 306 684 598 943
313 278 678 488 1432 825 656 294 935 462 1095 663 90 113 137 219 156 352 14
101 -11 348 -47 453 -68 204 -229 383 -502 555 -140 89 -458 246 -807 398
-576 251 -826 378 -1090 554 -338 225 -555 458 -699 750 -71 143 -95 208 -134
365 l-27 105 -2 2653 -3 2652 -2775 0 -2775 0 0 -2612z"/>
</g>
</svg>
